<svg width="72" height="65" viewBox="0 0 72 65" fill="none" xmlns="http://www.w3.org/2000/svg">
<mask id="path-1-inside-1_847_523" fill="white">
<path d="M43.7306 21.8604C44.0585 19.6678 42.3892 18.4892 40.1065 17.7029L40.8471 14.7328L39.0391 14.2823L38.3182 17.1742C37.8429 17.0556 37.3548 16.9439 36.8696 16.8332L37.5957 13.9222L35.7888 13.4717L35.0479 16.4408C34.6546 16.3513 34.2683 16.2628 33.8935 16.1695L33.8955 16.1602L31.4023 15.5376L30.9213 17.4686C30.9213 17.4686 32.2627 17.7761 32.2344 17.795C32.9666 17.9778 33.099 18.4624 33.077 18.8466L32.2335 22.2302C32.2839 22.243 32.3493 22.2616 32.4214 22.2906C32.3611 22.2756 32.2969 22.2592 32.2303 22.2433L31.048 26.9833C30.9585 27.2057 30.7314 27.5396 30.2195 27.4128C30.2377 27.4391 28.9055 27.0849 28.9055 27.0849L28.0078 29.1544L30.3606 29.741C30.7983 29.8507 31.2273 29.9656 31.6497 30.0736L30.9015 33.0778L32.7074 33.5283L33.4483 30.556C33.9417 30.6899 34.4205 30.8135 34.8892 30.9299L34.1508 33.8882L35.9588 34.3387L36.7069 31.3402C39.79 31.9236 42.1082 31.6884 43.0839 28.8998C43.8702 26.6546 43.0448 25.3597 41.4228 24.5152C42.6042 24.2427 43.494 23.4657 43.7313 21.8607L43.7307 21.8603L43.7306 21.8604ZM39.5997 27.653C39.041 29.8981 35.2609 28.6844 34.0353 28.3801L35.0281 24.4001C36.2536 24.706 40.1837 25.3115 39.5998 27.653H39.5997ZM40.1589 21.8279C39.6492 23.8701 36.5029 22.8326 35.4823 22.5781L36.3825 18.9685C37.4031 19.2229 40.6899 19.6977 40.1591 21.8279H40.1589Z"/>
</mask>
<path d="M43.7306 21.8604C44.0585 19.6678 42.3892 18.4892 40.1065 17.7029L40.8471 14.7328L39.0391 14.2823L38.3182 17.1742C37.8429 17.0556 37.3548 16.9439 36.8696 16.8332L37.5957 13.9222L35.7888 13.4717L35.0479 16.4408C34.6546 16.3513 34.2683 16.2628 33.8935 16.1695L33.8955 16.1602L31.4023 15.5376L30.9213 17.4686C30.9213 17.4686 32.2627 17.7761 32.2344 17.795C32.9666 17.9778 33.099 18.4624 33.077 18.8466L32.2335 22.2302C32.2839 22.243 32.3493 22.2616 32.4214 22.2906C32.3611 22.2756 32.2969 22.2592 32.2303 22.2433L31.048 26.9833C30.9585 27.2057 30.7314 27.5396 30.2195 27.4128C30.2377 27.4391 28.9055 27.0849 28.9055 27.0849L28.0078 29.1544L30.3606 29.741C30.7983 29.8507 31.2273 29.9656 31.6497 30.0736L30.9015 33.0778L32.7074 33.5283L33.4483 30.556C33.9417 30.6899 34.4205 30.8135 34.8892 30.9299L34.1508 33.8882L35.9588 34.3387L36.7069 31.3402C39.79 31.9236 42.1082 31.6884 43.0839 28.8998C43.8702 26.6546 43.0448 25.3597 41.4228 24.5152C42.6042 24.2427 43.494 23.4657 43.7313 21.8607L43.7307 21.8603L43.7306 21.8604ZM39.5997 27.653C39.041 29.8981 35.2609 28.6844 34.0353 28.3801L35.0281 24.4001C36.2536 24.706 40.1837 25.3115 39.5998 27.653H39.5997ZM40.1589 21.8279C39.6492 23.8701 36.5029 22.8326 35.4823 22.5781L36.3825 18.9685C37.4031 19.2229 40.6899 19.6977 40.1591 21.8279H40.1589Z" fill="url(#paint0_linear_847_523)"/>
<path d="M43.7306 21.8604L43.7226 21.8592L43.7378 21.864L43.7306 21.8604ZM40.1065 17.7029L40.017 17.6806L40.1039 17.7105L40.1065 17.7029ZM40.8471 14.7328L-15.9607 0.569345L40.849 14.725L40.8471 14.7328ZM39.0391 14.2823L61.2445 -74.8331L39.0312 14.2803L39.0391 14.2823ZM38.3182 17.1742L53.3306 -43.0184L38.326 17.1761L38.3182 17.1742ZM36.8696 16.8332L37.2597 16.9305L36.8678 16.8411L36.8696 16.8332ZM37.5957 13.9222L-44.4234 -6.53605L37.5977 13.9144L37.5957 13.9222ZM35.7888 13.4717L45.7646 -26.5385L35.781 13.4697L35.7888 13.4717ZM35.0479 16.4408L34.9615 16.8206L35.0557 16.4428L35.0479 16.4408ZM33.8935 16.1695L33.5572 16.0941L33.8915 16.1773L33.8935 16.1695ZM33.8955 16.1602L34.2201 16.2329L33.8975 16.1524L33.8955 16.1602ZM31.4023 15.5376L28.2407 28.198L31.3945 15.5356L31.4023 15.5376ZM30.9213 17.4686L31.3379 17.5724L30.9195 17.4765L30.9213 17.4686ZM32.2344 17.795L32.23 17.7883L32.2149 17.7984L32.2325 17.8028L32.2344 17.795ZM33.077 18.8466L33.0849 18.8485L33.085 18.847L33.077 18.8466ZM32.2335 22.2302L30.4662 21.7897L32.2315 22.238L32.2335 22.2302ZM32.4214 22.2906L32.4195 22.2984L32.4244 22.2831L32.4214 22.2906ZM32.2303 22.2433L32.4287 21.4146L32.2225 22.2413L32.2303 22.2433ZM31.048 26.9833L31.0555 26.9863L31.0558 26.9853L31.048 26.9833ZM30.2195 27.4128L30.2215 27.405L30.2008 27.3999L30.2129 27.4174L30.2195 27.4128ZM28.9055 27.0849L28.9194 27.0326L28.8981 27.0817L28.9055 27.0849ZM28.0078 29.1544L28.0528 29.174L28.0059 29.1623L28.0078 29.1544ZM30.3606 29.741L30.3626 29.7332L30.3626 29.7332L30.3606 29.741ZM31.6497 30.0736L32.9034 30.3858L31.6517 30.0658L31.6497 30.0736ZM30.9015 33.0778L11.2732 28.1895L30.8996 33.0856L30.9015 33.0778ZM32.7074 33.5283L43.6495 -10.3339L32.7152 33.5302L32.7074 33.5283ZM33.4483 30.556L33.3468 30.93L33.4405 30.554L33.4483 30.556ZM34.8892 30.9299L27.727 29.1422L34.8911 30.9221L34.8892 30.9299ZM34.1508 33.8882L52.6907 38.516L34.1488 33.896L34.1508 33.8882ZM35.9588 34.3387L29.4578 60.43L35.9667 34.3407L35.9588 34.3387ZM36.7069 31.3402L36.733 31.2023L36.6991 31.3382L36.7069 31.3402ZM43.0839 28.8998L43.0763 28.8971V28.8971L43.0839 28.8998ZM41.4228 24.5152L41.421 24.5073L41.3997 24.5122L41.4191 24.5223L41.4228 24.5152ZM43.7313 21.8607L43.7487 21.8632L43.7359 21.8541L43.7313 21.8607ZM43.7307 21.8603L43.7007 21.9023L43.7235 21.8567L43.7307 21.8603ZM39.5997 27.653V27.6196L39.5919 27.651L39.5997 27.653ZM34.0353 28.3801L41.3824 30.2129L34.0333 28.3879L34.0353 28.3801ZM35.0281 24.4001L24.7289 65.6537L35.0203 24.3981L35.0281 24.4001ZM39.5998 27.653V27.6862L39.6076 27.6549L39.5998 27.653ZM40.1589 21.8279V21.7946L40.1511 21.8259L40.1589 21.8279ZM35.4823 22.5781L118.696 43.3292L35.4804 22.586L35.4823 22.5781ZM36.3825 18.9685L57.1257 -64.2475L36.3746 18.9665L36.3825 18.9685ZM40.1591 21.8279V21.8612L40.1669 21.8298L40.1591 21.8279ZM43.7386 21.8616C43.9029 20.7627 43.5667 19.9173 42.9033 19.2486C42.2403 18.5803 41.2509 18.0885 40.1092 17.6953L40.1039 17.7105C41.2449 18.1035 42.2315 18.5942 42.8918 19.2599C43.5518 19.9252 43.8862 20.7655 43.7226 21.8592L43.7386 21.8616ZM40.1144 17.7048L40.8549 14.7347L40.8392 14.7308L40.0987 17.7009L40.1144 17.7048ZM40.849 14.725L39.041 14.2744L39.0371 14.2901L40.8451 14.7406L40.849 14.725ZM39.0312 14.2803L38.3104 17.1722L38.326 17.1761L39.0469 14.2842L39.0312 14.2803ZM38.3201 17.1664C37.8447 17.0478 37.3565 16.9361 36.8714 16.8253L36.8678 16.8411C37.353 16.9518 37.841 17.0635 38.3162 17.182L38.3201 17.1664ZM36.8774 16.8351L37.6035 13.9241L37.5879 13.9202L36.8618 16.8313L36.8774 16.8351ZM37.5977 13.9144L35.7908 13.4639L35.7869 13.4795L37.5938 13.93L37.5977 13.9144ZM35.781 13.4697L35.0401 16.4389L35.0557 16.4428L35.7967 13.4736L35.781 13.4697ZM35.0497 16.433C34.6564 16.3434 34.2701 16.2549 33.8954 16.1617L33.8915 16.1773C34.2664 16.2706 34.6528 16.3591 35.0461 16.4487L35.0497 16.433ZM33.9013 16.1713L33.9034 16.1619L33.8877 16.1584L33.8856 16.1678L33.9013 16.1713ZM33.8975 16.1524L31.4042 15.5297L31.4003 15.5454L33.8936 16.168L33.8975 16.1524ZM31.3945 15.5356L30.9135 17.4667L30.9291 17.4706L31.4101 15.5395L31.3945 15.5356ZM30.9213 17.4686C30.9195 17.4765 30.9195 17.4765 30.9195 17.4765C30.9195 17.4765 30.9196 17.4765 30.9196 17.4765C30.9196 17.4765 30.9197 17.4765 30.9198 17.4765C30.9199 17.4766 30.9202 17.4766 30.9205 17.4767C30.9211 17.4768 30.9221 17.4771 30.9234 17.4774C30.9259 17.4779 30.9297 17.4788 30.9346 17.4799C30.9444 17.4822 30.9588 17.4855 30.9771 17.4897C31.0137 17.4982 31.066 17.5102 31.1286 17.5248C31.2539 17.5539 31.4207 17.5929 31.5866 17.6326C31.7525 17.6722 31.9175 17.7124 32.0392 17.7438C32.1 17.7596 32.15 17.7731 32.1838 17.7833C32.2008 17.7884 32.2134 17.7926 32.2214 17.7957C32.2255 17.7974 32.2277 17.7985 32.2287 17.7991C32.2294 17.7996 32.2284 17.7991 32.2276 17.7975C32.227 17.7964 32.2264 17.7945 32.2271 17.7922C32.2278 17.79 32.2292 17.7888 32.23 17.7883L32.2389 17.8017C32.2401 17.8009 32.2418 17.7994 32.2426 17.7968C32.2434 17.7942 32.2427 17.7918 32.242 17.7903C32.2407 17.7879 32.2386 17.7864 32.2376 17.7857C32.2352 17.7841 32.2315 17.7824 32.2273 17.7808C32.2187 17.7773 32.2055 17.773 32.1884 17.7679C32.1543 17.7576 32.1041 17.744 32.0432 17.7282C31.9213 17.6967 31.7563 17.6565 31.5903 17.6169C31.4244 17.5773 31.2576 17.5382 31.1323 17.5091C31.0696 17.4946 31.0173 17.4825 30.9807 17.474C30.9624 17.4698 30.948 17.4665 30.9382 17.4642C30.9333 17.4631 30.9295 17.4622 30.927 17.4617C30.9257 17.4614 30.9247 17.4611 30.9241 17.461C30.9238 17.4609 30.9235 17.4609 30.9234 17.4608C30.9233 17.4608 30.9232 17.4608 30.9232 17.4608C30.9232 17.4608 30.9231 17.4608 30.9231 17.4608C30.9231 17.4608 30.9231 17.4608 30.9213 17.4686ZM32.2325 17.8028C32.597 17.8938 32.8112 18.0596 32.9317 18.2496C33.0524 18.4397 33.0799 18.6551 33.069 18.8461L33.085 18.847C33.0961 18.6539 33.0684 18.4349 32.9453 18.2409C32.8221 18.0469 32.6041 17.879 32.2364 17.7872L32.2325 17.8028ZM33.0692 18.8446L32.2257 22.2283L32.2413 22.2322L33.0848 18.8485L33.0692 18.8446ZM32.2315 22.238C32.2817 22.2508 32.3467 22.2692 32.4184 22.298L32.4244 22.2831C32.3518 22.2539 32.2861 22.2353 32.2355 22.2224L32.2315 22.238ZM32.4234 22.2827C32.3631 22.2678 32.2989 22.2514 32.2322 22.2354L32.2285 22.2511C32.295 22.267 32.3591 22.2834 32.4195 22.2984L32.4234 22.2827ZM32.2225 22.2413L31.0402 26.9814L31.0558 26.9853L32.2381 22.2452L32.2225 22.2413ZM31.0405 26.9803C30.9961 27.0908 30.9177 27.2283 30.7875 27.3225C30.6576 27.4164 30.4753 27.4678 30.2215 27.405L30.2176 27.4206C30.4757 27.4845 30.6629 27.4324 30.7969 27.3355C30.9305 27.2389 31.0104 27.0983 31.0555 26.9863L31.0405 26.9803ZM30.2129 27.4174C30.2125 27.4168 30.2114 27.4149 30.2117 27.4122C30.2122 27.4093 30.2141 27.4076 30.2152 27.4069C30.2161 27.4063 30.2169 27.4062 30.217 27.4061C30.2172 27.4061 30.2172 27.4061 30.217 27.4061C30.2158 27.4062 30.2132 27.406 30.2088 27.4055C30.2004 27.4044 30.1872 27.4019 30.1699 27.3984C30.1353 27.3912 30.0849 27.3796 30.0237 27.3648C29.9015 27.3353 29.7367 27.2935 29.5713 27.2509C29.4059 27.2083 29.24 27.1648 29.1154 27.132C29.0531 27.1156 29.0011 27.1019 28.9647 27.0922C28.9465 27.0874 28.9322 27.0836 28.9225 27.0811C28.9176 27.0798 28.9139 27.0788 28.9113 27.0781C28.9101 27.0778 28.9091 27.0775 28.9085 27.0773C28.9082 27.0773 28.9079 27.0772 28.9078 27.0771C28.9077 27.0771 28.9076 27.0771 28.9076 27.0771C28.9076 27.0771 28.9075 27.0771 28.9075 27.0771C28.9075 27.0771 28.9075 27.0771 28.9055 27.0849C28.9034 27.0927 28.9034 27.0927 28.9034 27.0927C28.9034 27.0927 28.9034 27.0927 28.9034 27.0927C28.9035 27.0927 28.9035 27.0927 28.9036 27.0927C28.9038 27.0928 28.904 27.0928 28.9044 27.0929C28.905 27.0931 28.9059 27.0933 28.9072 27.0937C28.9097 27.0943 28.9135 27.0953 28.9183 27.0966C28.9281 27.0992 28.9424 27.103 28.9606 27.1078C28.997 27.1175 29.049 27.1312 29.1113 27.1476C29.2359 27.1804 29.4019 27.2238 29.5673 27.2665C29.7327 27.3091 29.8976 27.3509 30.02 27.3805C30.0812 27.3952 30.1318 27.4069 30.1666 27.4141C30.184 27.4177 30.1976 27.4202 30.2067 27.4214C30.2111 27.422 30.215 27.4224 30.2178 27.4222C30.2185 27.4222 30.2194 27.4221 30.2202 27.4219C30.221 27.4218 30.2223 27.4214 30.2237 27.4206C30.2251 27.4197 30.2272 27.4177 30.2277 27.4145C30.2281 27.4115 30.2269 27.4092 30.2262 27.4082L30.2129 27.4174ZM28.8981 27.0817L28.0004 29.1512L28.0152 29.1577L28.9128 27.0881L28.8981 27.0817ZM28.0059 29.1623L30.3587 29.7488L30.3626 29.7332L28.0098 29.1466L28.0059 29.1623ZM30.3587 29.7488C30.7964 29.8586 31.2251 29.9734 31.6477 30.0814L31.6517 30.0658C31.2294 29.9578 30.8003 29.8429 30.3626 29.7332L30.3587 29.7488ZM31.6419 30.0716L30.8937 33.0758L30.9093 33.0797L31.6575 30.0755L31.6419 30.0716ZM30.8996 33.0856L32.7055 33.5361L32.7094 33.5205L30.9035 33.07L30.8996 33.0856ZM32.7152 33.5302L33.4562 30.5579L33.4405 30.554L32.6996 33.5263L32.7152 33.5302ZM33.4462 30.5638C33.9396 30.6977 34.4185 30.8213 34.8872 30.9377L34.8911 30.9221C34.4225 30.8057 33.9437 30.6821 33.4504 30.5482L33.4462 30.5638ZM34.8814 30.928L34.1429 33.8862L34.1586 33.8902L34.897 30.9319L34.8814 30.928ZM34.1488 33.896L35.9569 34.3465L35.9608 34.3309L34.1527 33.8804L34.1488 33.896ZM35.9667 34.3407L36.7147 31.3421L36.6991 31.3382L35.951 34.3368L35.9667 34.3407ZM36.7054 31.3481C38.2472 31.6399 39.5992 31.7273 40.688 31.3922C41.7776 31.0569 42.6029 30.2989 43.0915 28.9025L43.0763 28.8971C42.5892 30.2893 41.7675 31.0432 40.6833 31.3768C39.5983 31.7107 38.2497 31.6239 36.7084 31.3322L36.7054 31.3481ZM43.0915 28.9025C43.4851 27.7786 43.4757 26.8914 43.1638 26.179C42.852 25.4667 42.2384 24.9307 41.4265 24.508L41.4191 24.5223C42.2292 24.9441 42.8393 25.4778 43.1491 26.1855C43.4588 26.893 43.469 27.7758 43.0763 28.8971L43.0915 28.9025ZM41.4246 24.523C42.0165 24.3865 42.5359 24.1235 42.937 23.6931C43.3381 23.2628 43.6204 22.6657 43.7392 21.8618L43.7233 21.8595C43.6048 22.6607 43.3236 23.2546 42.9252 23.6821C42.5267 24.1097 42.0105 24.3714 41.421 24.5073L41.4246 24.523ZM43.7359 21.8541L43.7354 21.8537L43.726 21.8668L43.7266 21.8672L43.7359 21.8541ZM43.7235 21.8567L43.7234 21.8568L43.7378 21.864L43.7379 21.8639L43.7235 21.8567ZM39.5919 27.651C39.4529 28.2096 39.1137 28.5529 38.6637 28.7492C38.2132 28.9456 37.6515 28.9949 37.068 28.9645C35.9009 28.9038 34.6506 28.5246 34.0372 28.3723L34.0333 28.3879C34.6455 28.5399 35.8981 28.9198 37.0671 28.9806C37.6517 29.0111 38.2164 28.9618 38.6701 28.7639C39.1243 28.5658 39.4672 28.2188 39.6076 27.6549L39.5919 27.651ZM34.0431 28.3821L35.0359 24.402L35.0203 24.3981L34.0275 28.3782L34.0431 28.3821ZM35.0262 24.4079C35.6397 24.5611 36.9273 24.7886 37.9892 25.2705C38.52 25.5114 38.9935 25.8155 39.2978 26.2049C39.6018 26.5938 39.7373 27.0682 39.592 27.651L39.6076 27.6549C39.7542 27.067 39.6174 26.5876 39.3105 26.195C39.0039 25.8027 38.5277 25.4972 37.9958 25.2559C36.9322 24.7732 35.642 24.545 35.0301 24.3923L35.0262 24.4079ZM39.5998 27.6449H39.5997V27.661H39.5998V27.6449ZM40.1511 21.8259C40.0242 22.3341 39.7337 22.6503 39.3532 22.8352C38.9723 23.0203 38.5008 23.0741 38.0125 23.0562C37.0357 23.0203 35.9952 22.6977 35.4843 22.5703L35.4804 22.586C35.99 22.713 37.033 23.0363 38.0119 23.0723C38.5014 23.0903 38.9759 23.0364 39.3602 22.8497C39.7449 22.6627 40.0387 22.3428 40.1667 21.8298L40.1511 21.8259ZM35.4901 22.5801L36.3903 18.9704L36.3746 18.9665L35.4745 22.5762L35.4901 22.5801ZM36.3805 18.9763C36.8917 19.1037 37.9671 19.2857 38.8491 19.7021C39.29 19.9102 39.6816 20.1765 39.9299 20.5229C40.1779 20.869 40.2834 21.2957 40.1512 21.8259L40.1669 21.8298C40.3001 21.295 40.1938 20.8635 39.943 20.5135C39.6924 20.1639 39.298 19.8962 38.856 19.6875C37.9721 19.2703 36.8938 19.0877 36.3844 18.9607L36.3805 18.9763ZM40.1591 21.8198H40.1589V21.8359H40.1591V21.8198Z" fill="url(#paint1_linear_847_523)" mask="url(#path-1-inside-1_847_523)"/>
<path d="M53.1142 23.923C53.1142 33.4325 45.4052 41.1416 35.8956 41.1416C26.3861 41.1416 18.6771 33.4325 18.6771 23.923C18.6771 14.4134 26.3861 6.70441 35.8956 6.70441C45.4052 6.70441 53.1142 14.4134 53.1142 23.923Z" stroke="url(#paint2_linear_847_523)" stroke-width="1.06507"/>
<path d="M59.3408 23.9C59.3408 36.7036 48.9614 47.083 36.1578 47.083C23.3542 47.083 12.9748 36.7036 12.9748 23.9C12.9748 11.0964 23.3542 0.717 36.1578 0.717C48.9614 0.717 59.3408 11.0964 59.3408 23.9Z" stroke="url(#paint3_linear_847_523)" stroke-width="1.434"/>
<mask id="path-5-outside-2_847_523" maskUnits="userSpaceOnUse" x="0" y="53.7275" width="73" height="8" fill="black">
<rect fill="white" y="53.7275" width="73" height="8"/>
<path d="M4.52495 57.3826C4.9028 57.4631 5.20632 57.6521 5.43551 57.9494C5.6647 58.2405 5.7793 58.575 5.7793 58.9529C5.7793 59.498 5.58727 59.9316 5.20322 60.2537C4.82537 60.5696 4.29576 60.7275 3.61438 60.7275H0.576071V54.2049H3.51218C4.17497 54.2049 4.69219 54.3567 5.06385 54.6602C5.44171 54.9637 5.63063 55.3757 5.63063 55.896C5.63063 56.28 5.52843 56.599 5.32401 56.853C5.1258 57.107 4.85944 57.2835 4.52495 57.3826ZM2.16491 56.8437H3.20556C3.46572 56.8437 3.66394 56.788 3.80021 56.6765C3.94268 56.5588 4.01392 56.3884 4.01392 56.1654C4.01392 55.9424 3.94268 55.7721 3.80021 55.6544C3.66394 55.5367 3.46572 55.4779 3.20556 55.4779H2.16491V56.8437ZM3.33564 59.4453C3.60199 59.4453 3.80641 59.3865 3.94888 59.2688C4.09754 59.1449 4.17187 58.9684 4.17187 58.7392C4.17187 58.51 4.09444 58.3303 3.93958 58.2003C3.79092 58.0702 3.58341 58.0051 3.31706 58.0051H2.16491V59.4453H3.33564ZM11.393 54.2049V55.4779H9.6648V60.7275H8.07596V55.4779H6.34775V54.2049H11.393ZM11.921 57.4569C11.921 56.8127 12.0603 56.2398 12.3391 55.738C12.6178 55.2301 13.005 54.8367 13.5005 54.558C14.0022 54.2731 14.569 54.1306 15.2008 54.1306C15.9751 54.1306 16.6379 54.335 17.1892 54.7438C17.7405 55.1527 18.1091 55.7101 18.2949 56.4163H16.5481C16.418 56.1437 16.2322 55.9362 15.9906 55.7938C15.7552 55.6513 15.4858 55.5801 15.1823 55.5801C14.6929 55.5801 14.2965 55.7504 13.993 56.0911C13.6894 56.4318 13.5377 56.8871 13.5377 57.4569C13.5377 58.0268 13.6894 58.4821 13.993 58.8228C14.2965 59.1635 14.6929 59.3338 15.1823 59.3338C15.4858 59.3338 15.7552 59.2626 15.9906 59.1201C16.2322 58.9776 16.418 58.7701 16.5481 58.4976H18.2949C18.1091 59.2037 17.7405 59.7612 17.1892 60.1701C16.6379 60.5727 15.9751 60.774 15.2008 60.774C14.569 60.774 14.0022 60.6346 13.5005 60.3559C13.005 60.0709 12.6178 59.6776 12.3391 59.1759C12.0603 58.6741 11.921 58.1011 11.921 57.4569ZM20.0112 60.8019C19.7325 60.8019 19.5033 60.7213 19.3236 60.5603C19.1502 60.393 19.0635 60.1886 19.0635 59.9471C19.0635 59.6993 19.1502 59.4918 19.3236 59.3245C19.5033 59.1573 19.7325 59.0737 20.0112 59.0737C20.2838 59.0737 20.5068 59.1573 20.6802 59.3245C20.8598 59.4918 20.9497 59.6993 20.9497 59.9471C20.9497 60.1886 20.8598 60.393 20.6802 60.5603C20.5068 60.7213 20.2838 60.8019 20.0112 60.8019ZM25.9506 59.5754H23.5162L23.126 60.7275H21.4628L23.8228 54.2049H25.6625L28.0226 60.7275H26.3408L25.9506 59.5754ZM25.5417 58.3489L24.7334 55.961L23.9343 58.3489H25.5417ZM28.4714 57.4569C28.4714 56.8127 28.6108 56.2398 28.8895 55.738C29.1683 55.2301 29.5554 54.8367 30.0509 54.558C30.5527 54.2731 31.1195 54.1306 31.7513 54.1306C32.5256 54.1306 33.1884 54.335 33.7397 54.7438C34.291 55.1527 34.6595 55.7101 34.8453 56.4163H33.0985C32.9685 56.1437 32.7826 55.9362 32.5411 55.7938C32.3057 55.6513 32.0362 55.5801 31.7327 55.5801C31.2434 55.5801 30.8469 55.7504 30.5434 56.0911C30.2399 56.4318 30.0881 56.8871 30.0881 57.4569C30.0881 58.0268 30.2399 58.4821 30.5434 58.8228C30.8469 59.1635 31.2434 59.3338 31.7327 59.3338C32.0362 59.3338 32.3057 59.2626 32.5411 59.1201C32.7826 58.9776 32.9685 58.7701 33.0985 58.4976H34.8453C34.6595 59.2037 34.291 59.7612 33.7397 60.1701C33.1884 60.5727 32.5256 60.774 31.7513 60.774C31.1195 60.774 30.5527 60.6346 30.0509 60.3559C29.5554 60.0709 29.1683 59.6776 28.8895 59.1759C28.6108 58.6741 28.4714 58.1011 28.4714 57.4569ZM39.8787 59.5754H37.4443L37.0541 60.7275H35.3909L37.751 54.2049H39.5907L41.9507 60.7275H40.269L39.8787 59.5754ZM39.4699 58.3489L38.6615 55.961L37.8625 58.3489H39.4699ZM45.1126 54.2049C45.8002 54.2049 46.4011 54.3412 46.9152 54.6137C47.4293 54.8863 47.8257 55.2703 48.1045 55.7659C48.3894 56.2552 48.5319 56.822 48.5319 57.4662C48.5319 58.1042 48.3894 58.671 48.1045 59.1666C47.8257 59.6621 47.4262 60.0462 46.9059 60.3187C46.3918 60.5913 45.794 60.7275 45.1126 60.7275H42.669V54.2049H45.1126ZM45.0104 59.3524C45.6113 59.3524 46.079 59.1883 46.4134 58.86C46.7479 58.5317 46.9152 58.0671 46.9152 57.4662C46.9152 56.8654 46.7479 56.3977 46.4134 56.0632C46.079 55.7287 45.6113 55.5615 45.0104 55.5615H44.2578V59.3524H45.0104ZM51.0087 55.4779V56.7972H53.1364V58.0237H51.0087V59.4546H53.4152V60.7275H49.4198V54.2049H53.4152V55.4779H51.0087ZM61.8334 54.2049V60.7275H60.2445V56.8158L58.7858 60.7275H57.5035L56.0355 56.8065V60.7275H54.4467V54.2049H56.3235L58.1539 58.7206L59.9658 54.2049H61.8334ZM64.5648 54.2049V60.7275H62.9759V54.2049H64.5648ZM69.7766 59.5754H67.3422L66.952 60.7275H65.2888L67.6488 54.2049H69.4885L71.8486 60.7275H70.1668L69.7766 59.5754ZM69.3677 58.3489L68.5594 55.961L67.7603 58.3489H69.3677Z"/>
</mask>
<path d="M4.52495 57.3826C4.9028 57.4631 5.20632 57.6521 5.43551 57.9494C5.6647 58.2405 5.7793 58.575 5.7793 58.9529C5.7793 59.498 5.58727 59.9316 5.20322 60.2537C4.82537 60.5696 4.29576 60.7275 3.61438 60.7275H0.576071V54.2049H3.51218C4.17497 54.2049 4.69219 54.3567 5.06385 54.6602C5.44171 54.9637 5.63063 55.3757 5.63063 55.896C5.63063 56.28 5.52843 56.599 5.32401 56.853C5.1258 57.107 4.85944 57.2835 4.52495 57.3826ZM2.16491 56.8437H3.20556C3.46572 56.8437 3.66394 56.788 3.80021 56.6765C3.94268 56.5588 4.01392 56.3884 4.01392 56.1654C4.01392 55.9424 3.94268 55.7721 3.80021 55.6544C3.66394 55.5367 3.46572 55.4779 3.20556 55.4779H2.16491V56.8437ZM3.33564 59.4453C3.60199 59.4453 3.80641 59.3865 3.94888 59.2688C4.09754 59.1449 4.17187 58.9684 4.17187 58.7392C4.17187 58.51 4.09444 58.3303 3.93958 58.2003C3.79092 58.0702 3.58341 58.0051 3.31706 58.0051H2.16491V59.4453H3.33564ZM11.393 54.2049V55.4779H9.6648V60.7275H8.07596V55.4779H6.34775V54.2049H11.393ZM11.921 57.4569C11.921 56.8127 12.0603 56.2398 12.3391 55.738C12.6178 55.2301 13.005 54.8367 13.5005 54.558C14.0022 54.2731 14.569 54.1306 15.2008 54.1306C15.9751 54.1306 16.6379 54.335 17.1892 54.7438C17.7405 55.1527 18.1091 55.7101 18.2949 56.4163H16.5481C16.418 56.1437 16.2322 55.9362 15.9906 55.7938C15.7552 55.6513 15.4858 55.5801 15.1823 55.5801C14.6929 55.5801 14.2965 55.7504 13.993 56.0911C13.6894 56.4318 13.5377 56.8871 13.5377 57.4569C13.5377 58.0268 13.6894 58.4821 13.993 58.8228C14.2965 59.1635 14.6929 59.3338 15.1823 59.3338C15.4858 59.3338 15.7552 59.2626 15.9906 59.1201C16.2322 58.9776 16.418 58.7701 16.5481 58.4976H18.2949C18.1091 59.2037 17.7405 59.7612 17.1892 60.1701C16.6379 60.5727 15.9751 60.774 15.2008 60.774C14.569 60.774 14.0022 60.6346 13.5005 60.3559C13.005 60.0709 12.6178 59.6776 12.3391 59.1759C12.0603 58.6741 11.921 58.1011 11.921 57.4569ZM20.0112 60.8019C19.7325 60.8019 19.5033 60.7213 19.3236 60.5603C19.1502 60.393 19.0635 60.1886 19.0635 59.9471C19.0635 59.6993 19.1502 59.4918 19.3236 59.3245C19.5033 59.1573 19.7325 59.0737 20.0112 59.0737C20.2838 59.0737 20.5068 59.1573 20.6802 59.3245C20.8598 59.4918 20.9497 59.6993 20.9497 59.9471C20.9497 60.1886 20.8598 60.393 20.6802 60.5603C20.5068 60.7213 20.2838 60.8019 20.0112 60.8019ZM25.9506 59.5754H23.5162L23.126 60.7275H21.4628L23.8228 54.2049H25.6625L28.0226 60.7275H26.3408L25.9506 59.5754ZM25.5417 58.3489L24.7334 55.961L23.9343 58.3489H25.5417ZM28.4714 57.4569C28.4714 56.8127 28.6108 56.2398 28.8895 55.738C29.1683 55.2301 29.5554 54.8367 30.0509 54.558C30.5527 54.2731 31.1195 54.1306 31.7513 54.1306C32.5256 54.1306 33.1884 54.335 33.7397 54.7438C34.291 55.1527 34.6595 55.7101 34.8453 56.4163H33.0985C32.9685 56.1437 32.7826 55.9362 32.5411 55.7938C32.3057 55.6513 32.0362 55.5801 31.7327 55.5801C31.2434 55.5801 30.8469 55.7504 30.5434 56.0911C30.2399 56.4318 30.0881 56.8871 30.0881 57.4569C30.0881 58.0268 30.2399 58.4821 30.5434 58.8228C30.8469 59.1635 31.2434 59.3338 31.7327 59.3338C32.0362 59.3338 32.3057 59.2626 32.5411 59.1201C32.7826 58.9776 32.9685 58.7701 33.0985 58.4976H34.8453C34.6595 59.2037 34.291 59.7612 33.7397 60.1701C33.1884 60.5727 32.5256 60.774 31.7513 60.774C31.1195 60.774 30.5527 60.6346 30.0509 60.3559C29.5554 60.0709 29.1683 59.6776 28.8895 59.1759C28.6108 58.6741 28.4714 58.1011 28.4714 57.4569ZM39.8787 59.5754H37.4443L37.0541 60.7275H35.3909L37.751 54.2049H39.5907L41.9507 60.7275H40.269L39.8787 59.5754ZM39.4699 58.3489L38.6615 55.961L37.8625 58.3489H39.4699ZM45.1126 54.2049C45.8002 54.2049 46.4011 54.3412 46.9152 54.6137C47.4293 54.8863 47.8257 55.2703 48.1045 55.7659C48.3894 56.2552 48.5319 56.822 48.5319 57.4662C48.5319 58.1042 48.3894 58.671 48.1045 59.1666C47.8257 59.6621 47.4262 60.0462 46.9059 60.3187C46.3918 60.5913 45.794 60.7275 45.1126 60.7275H42.669V54.2049H45.1126ZM45.0104 59.3524C45.6113 59.3524 46.079 59.1883 46.4134 58.86C46.7479 58.5317 46.9152 58.0671 46.9152 57.4662C46.9152 56.8654 46.7479 56.3977 46.4134 56.0632C46.079 55.7287 45.6113 55.5615 45.0104 55.5615H44.2578V59.3524H45.0104ZM51.0087 55.4779V56.7972H53.1364V58.0237H51.0087V59.4546H53.4152V60.7275H49.4198V54.2049H53.4152V55.4779H51.0087ZM61.8334 54.2049V60.7275H60.2445V56.8158L58.7858 60.7275H57.5035L56.0355 56.8065V60.7275H54.4467V54.2049H56.3235L58.1539 58.7206L59.9658 54.2049H61.8334ZM64.5648 54.2049V60.7275H62.9759V54.2049H64.5648ZM69.7766 59.5754H67.3422L66.952 60.7275H65.2888L67.6488 54.2049H69.4885L71.8486 60.7275H70.1668L69.7766 59.5754ZM69.3677 58.3489L68.5594 55.961L67.7603 58.3489H69.3677Z" fill="url(#paint4_linear_847_523)"/>
<path d="M4.52495 57.3826L4.45533 57.1476L4.47387 57.6223L4.52495 57.3826ZM5.43551 57.9494L5.24141 58.099L5.24296 58.101L5.43551 57.9494ZM5.20322 60.2537L5.36041 60.4417L5.3607 60.4414L5.20322 60.2537ZM0.576071 60.7275H0.331009V60.9726H0.576071V60.7275ZM0.576071 54.2049V53.9599H0.331009V54.2049H0.576071ZM5.06385 54.6602L4.90884 54.85L4.91038 54.8513L5.06385 54.6602ZM5.32401 56.853L5.13309 56.6993L5.13083 56.7022L5.32401 56.853ZM2.16491 56.8437H1.91985V57.0888H2.16491V56.8437ZM3.80021 56.6765L3.9554 56.8661L3.95629 56.8654L3.80021 56.6765ZM3.80021 55.6544L3.64 55.8399L3.64414 55.8433L3.80021 55.6544ZM2.16491 55.4779V55.2328H1.91985V55.4779H2.16491ZM3.94888 59.2688L4.10495 59.4577L4.10576 59.457L3.94888 59.2688ZM3.93958 58.2003L3.77818 58.3847L3.78196 58.3879L3.93958 58.2003ZM2.16491 58.0051V57.7601H1.91985V58.0051H2.16491ZM2.16491 59.4453H1.91985V59.6904H2.16491V59.4453ZM4.47387 57.6223C4.79669 57.6911 5.04882 57.8491 5.24142 58.099L5.6296 57.7998C5.36382 57.455 5.00892 57.2352 4.57603 57.1429L4.47387 57.6223ZM5.24296 58.101C5.43741 58.348 5.53423 58.6288 5.53423 58.9529H6.02436C6.02436 58.5212 5.89199 58.1331 5.62807 57.7978L5.24296 58.101ZM5.53423 58.9529C5.53423 59.4327 5.36899 59.7948 5.04574 60.0659L5.3607 60.4414C5.80556 60.0683 6.02436 59.5632 6.02436 58.9529H5.53423ZM5.04604 60.0657C4.72657 60.3328 4.26019 60.4825 3.61438 60.4825V60.9726C4.33133 60.9726 4.92418 60.8064 5.36041 60.4417L5.04604 60.0657ZM3.61438 60.4825H0.576071V60.9726H3.61438V60.4825ZM0.821134 60.7275V54.2049H0.331009V60.7275H0.821134ZM0.576071 54.45H3.51218V53.9599H0.576071V54.45ZM3.51218 54.45C4.13982 54.45 4.59502 54.5937 4.90884 54.85L5.21886 54.4704C4.78936 54.1196 4.21012 53.9599 3.51218 53.9599V54.45ZM4.91038 54.8513C5.22561 55.1045 5.38557 55.4437 5.38557 55.896H5.87569C5.87569 55.3076 5.6578 54.823 5.21732 54.4692L4.91038 54.8513ZM5.38557 55.896C5.38557 56.2345 5.29647 56.4964 5.13311 56.6993L5.51492 57.0067C5.76038 56.7017 5.87569 56.3255 5.87569 55.896H5.38557ZM5.13083 56.7022C4.96666 56.9126 4.74514 57.0618 4.45533 57.1476L4.59457 57.6176C4.97374 57.5052 5.28493 57.3014 5.5172 57.0038L5.13083 56.7022ZM2.16491 57.0888H3.20556V56.5986H2.16491V57.0888ZM3.20556 57.0888C3.49618 57.0888 3.75868 57.0271 3.9554 56.8661L3.64503 56.4868C3.5692 56.5488 3.43526 56.5986 3.20556 56.5986V57.0888ZM3.95629 56.8654C4.16681 56.6915 4.25898 56.4449 4.25898 56.1654H3.76885C3.76885 56.332 3.71855 56.4261 3.64414 56.4875L3.95629 56.8654ZM4.25898 56.1654C4.25898 55.886 4.16681 55.6394 3.95629 55.4655L3.64414 55.8433C3.71855 55.9048 3.76885 55.9989 3.76885 56.1654H4.25898ZM3.96039 55.4689C3.7634 55.2988 3.49885 55.2328 3.20556 55.2328V55.7229C3.43259 55.7229 3.56447 55.7746 3.64003 55.8399L3.96039 55.4689ZM3.20556 55.2328H2.16491V55.7229H3.20556V55.2328ZM1.91985 55.4779V56.8437H2.40998V55.4779H1.91985ZM3.33564 59.6904C3.6344 59.6904 3.90276 59.6247 4.10495 59.4577L3.7928 59.0798C3.71005 59.1482 3.56959 59.2003 3.33564 59.2003V59.6904ZM4.10576 59.457C4.32078 59.2779 4.41693 59.0262 4.41693 58.7392H3.92681C3.92681 58.9105 3.8743 59.0119 3.79199 59.0805L4.10576 59.457ZM4.41693 58.7392C4.41693 58.4484 4.31528 58.1958 4.09721 58.0126L3.78196 58.3879C3.87361 58.4649 3.92681 58.5716 3.92681 58.7392H4.41693ZM4.10096 58.0158C3.89409 57.8348 3.62191 57.7601 3.31706 57.7601V58.2502C3.54492 58.2502 3.68775 58.3055 3.77821 58.3847L4.10096 58.0158ZM3.31706 57.7601H2.16491V58.2502H3.31706V57.7601ZM1.91985 58.0051V59.4453H2.40998V58.0051H1.91985ZM2.16491 59.6904H3.33564V59.2003H2.16491V59.6904ZM11.393 54.2049H11.6381V53.9599H11.393V54.2049ZM11.393 55.4779V55.7229H11.6381V55.4779H11.393ZM9.6648 55.4779V55.2328H9.41974V55.4779H9.6648ZM9.6648 60.7275V60.9726H9.90986V60.7275H9.6648ZM8.07596 60.7275H7.8309V60.9726H8.07596V60.7275ZM8.07596 55.4779H8.32102V55.2328H8.07596V55.4779ZM6.34774 55.4779H6.10268V55.7229H6.34774V55.4779ZM6.34774 54.2049V53.9599H6.10268V54.2049H6.34774ZM11.148 54.2049V55.4779H11.6381V54.2049H11.148ZM11.393 55.2328H9.6648V55.7229H11.393V55.2328ZM9.41974 55.4779V60.7275H9.90986V55.4779H9.41974ZM9.6648 60.4825H8.07596V60.9726H9.6648V60.4825ZM8.32102 60.7275V55.4779H7.8309V60.7275H8.32102ZM8.07596 55.2328H6.34774V55.7229H8.07596V55.2328ZM6.59281 55.4779V54.2049H6.10268V55.4779H6.59281ZM6.34774 54.45H11.393V53.9599H6.34774V54.45ZM12.3391 55.738L12.5533 55.857L12.5539 55.8559L12.3391 55.738ZM13.5005 54.558L13.6207 54.7716L13.6215 54.7711L13.5005 54.558ZM17.1892 54.7438L17.3352 54.547L17.1892 54.7438ZM18.2949 56.4163V56.6614H18.6128L18.5319 56.3539L18.2949 56.4163ZM16.5481 56.4163L16.3269 56.5219L16.3935 56.6614H16.5481V56.4163ZM15.9906 55.7938L15.8637 56.0034L15.8661 56.0049L15.9906 55.7938ZM13.993 56.0911L14.1759 56.2541L13.993 56.0911ZM15.9906 59.1201L15.8661 58.909L15.8637 58.9105L15.9906 59.1201ZM16.5481 58.4976V58.2525H16.3935L16.3269 58.392L16.5481 58.4976ZM18.2949 58.4976L18.5319 58.56L18.6128 58.2525H18.2949V58.4976ZM17.1892 60.1701L17.3338 60.368L17.3352 60.3669L17.1892 60.1701ZM13.5005 60.3559L13.3783 60.5683L13.3815 60.5701L13.5005 60.3559ZM12.3391 59.1759L12.5533 59.0569L12.3391 59.1759ZM12.166 57.4569C12.166 56.8492 12.2972 56.3181 12.5533 55.857L12.1249 55.619C11.8235 56.1614 11.6759 56.7763 11.6759 57.4569H12.166ZM12.5539 55.8559C12.8111 55.3873 13.1658 55.0275 13.6207 54.7716L13.3804 54.3444C12.8441 54.646 12.4246 55.0729 12.1242 55.6201L12.5539 55.8559ZM13.6215 54.7711C14.0829 54.5091 14.6073 54.3757 15.2008 54.3757V53.8855C14.5307 53.8855 13.9216 54.0371 13.3795 54.3449L13.6215 54.7711ZM15.2008 54.3757C15.9296 54.3757 16.5395 54.5671 17.0432 54.9407L17.3352 54.547C16.7363 54.1029 16.0207 53.8855 15.2008 53.8855V54.3757ZM17.0432 54.9407C17.5468 55.3141 17.8853 55.8227 18.0579 56.4787L18.5319 56.3539C18.3329 55.5976 17.9342 54.9912 17.3352 54.547L17.0432 54.9407ZM18.2949 56.1712H16.5481V56.6614H18.2949V56.1712ZM16.7693 56.3107C16.6199 55.9977 16.402 55.7518 16.1151 55.5827L15.8661 56.0049C16.0624 56.1206 16.2162 56.2898 16.3269 56.5219L16.7693 56.3107ZM16.1175 55.5841C15.84 55.4161 15.5258 55.335 15.1823 55.335V55.8251C15.4458 55.8251 15.6705 55.8865 15.8637 56.0034L16.1175 55.5841ZM15.1823 55.335C14.6287 55.335 14.1637 55.5311 13.81 55.9281L14.1759 56.2541C14.4293 55.9697 14.7571 55.8251 15.1823 55.8251V55.335ZM13.81 55.9281C13.4572 56.324 13.2926 56.8425 13.2926 57.4569H13.7827C13.7827 56.9316 13.9217 56.5395 14.1759 56.2541L13.81 55.9281ZM13.2926 57.4569C13.2926 58.0714 13.4572 58.5898 13.81 58.9858L14.1759 58.6598C13.9217 58.3744 13.7827 57.9822 13.7827 57.4569H13.2926ZM13.81 58.9858C14.1637 59.3828 14.6287 59.5789 15.1823 59.5789V59.0888C14.7571 59.0888 14.4293 58.9441 14.1759 58.6598L13.81 58.9858ZM15.1823 59.5789C15.5258 59.5789 15.84 59.4977 16.1175 59.3298L15.8637 58.9105C15.6705 59.0274 15.4458 59.0888 15.1823 59.0888V59.5789ZM16.1151 59.3312C16.402 59.162 16.6199 58.9162 16.7693 58.6031L16.3269 58.392C16.2162 58.6241 16.0624 58.7933 15.8661 58.909L16.1151 59.3312ZM16.5481 58.7426H18.2949V58.2525H16.5481V58.7426ZM18.0579 58.4352C17.8853 59.0912 17.5468 59.5998 17.0432 59.9732L17.3352 60.3669C17.9342 59.9227 18.3329 59.3163 18.5319 58.56L18.0579 58.4352ZM17.0447 59.9721C16.5409 60.3401 15.9305 60.5289 15.2008 60.5289V61.0191C16.0198 61.0191 16.735 60.8053 17.3338 60.368L17.0447 59.9721ZM15.2008 60.5289C14.6064 60.5289 14.0813 60.3982 13.6195 60.1417L13.3815 60.5701C13.9232 60.8711 14.5317 61.0191 15.2008 61.0191V60.5289ZM13.6227 60.1434C13.1659 59.8808 12.8105 59.5198 12.5533 59.0569L12.1249 59.2949C12.4251 59.8354 12.844 60.2611 13.3784 60.5683L13.6227 60.1434ZM12.5533 59.0569C12.2972 58.5958 12.166 58.0647 12.166 57.4569H11.6759C11.6759 58.1376 11.8235 58.7524 12.1249 59.2949L12.5533 59.0569ZM19.3237 60.5603L19.1534 60.7368L19.1601 60.7428L19.3237 60.5603ZM19.3237 59.3245L19.1566 59.1451L19.1535 59.1481L19.3237 59.3245ZM20.6802 59.3245L20.5101 59.501L20.5132 59.5039L20.6802 59.3245ZM20.6802 60.5603L20.847 60.7399L20.8472 60.7397L20.6802 60.5603ZM20.0112 60.5568C19.7829 60.5568 19.615 60.4924 19.4872 60.3778L19.1601 60.7428C19.3916 60.9503 19.6821 61.0469 20.0112 61.0469V60.5568ZM19.4938 60.3839C19.3684 60.263 19.3086 60.1223 19.3086 59.9471H18.8184C18.8184 60.255 18.9321 60.5231 19.1535 60.7367L19.4938 60.3839ZM19.3086 59.9471C19.3086 59.7637 19.3697 59.6205 19.4938 59.5009L19.1535 59.1481C18.9307 59.363 18.8184 59.6349 18.8184 59.9471H19.3086ZM19.4906 59.5039C19.6187 59.3847 19.7854 59.3187 20.0112 59.3187V58.8286C19.6796 58.8286 19.3879 58.9299 19.1567 59.1452L19.4906 59.5039ZM20.0112 59.3187C20.2293 59.3187 20.3884 59.3836 20.5101 59.5009L20.8503 59.1481C20.6251 58.9309 20.3382 58.8286 20.0112 58.8286V59.3187ZM20.5132 59.5039C20.6425 59.6243 20.7046 59.7666 20.7046 59.9471H21.1947C21.1947 59.632 21.0772 59.3593 20.8472 59.1452L20.5132 59.5039ZM20.7046 59.9471C20.7046 60.1194 20.644 60.2592 20.5132 60.3809L20.8472 60.7397C21.0757 60.5269 21.1947 60.2579 21.1947 59.9471H20.7046ZM20.5135 60.3807C20.3922 60.4933 20.232 60.5568 20.0112 60.5568V61.0469C20.3356 61.0469 20.6213 60.9494 20.847 60.7399L20.5135 60.3807ZM25.9506 59.5754L26.1827 59.4968L26.1263 59.3303H25.9506V59.5754ZM23.5162 59.5754V59.3303H23.3405L23.2841 59.4968L23.5162 59.5754ZM23.126 60.7275V60.9726H23.3017L23.3581 60.8062L23.126 60.7275ZM21.4628 60.7275L21.2324 60.6442L21.1135 60.9726H21.4628V60.7275ZM23.8228 54.2049V53.9599H23.6509L23.5924 54.1215L23.8228 54.2049ZM25.6625 54.2049L25.893 54.1215L25.8345 53.9599H25.6625V54.2049ZM28.0226 60.7275V60.9726H28.3719L28.253 60.6442L28.0226 60.7275ZM26.3408 60.7275L26.1087 60.8062L26.1651 60.9726H26.3408V60.7275ZM25.5417 58.3489V58.594H25.8834L25.7739 58.2703L25.5417 58.3489ZM24.7334 55.961L24.9655 55.8824L24.732 55.1928L24.501 55.8832L24.7334 55.961ZM23.9343 58.3489L23.7019 58.2712L23.5939 58.594H23.9343V58.3489ZM25.9506 59.3303H23.5162V59.8205H25.9506V59.3303ZM23.2841 59.4968L22.8939 60.6489L23.3581 60.8062L23.7483 59.654L23.2841 59.4968ZM23.126 60.4825H21.4628V60.9726H23.126V60.4825ZM21.6932 60.8109L24.0533 54.2883L23.5924 54.1215L21.2324 60.6442L21.6932 60.8109ZM23.8228 54.45H25.6625V53.9599H23.8228V54.45ZM25.4321 54.2883L27.7921 60.8109L28.253 60.6442L25.893 54.1215L25.4321 54.2883ZM28.0226 60.4825H26.3408V60.9726H28.0226V60.4825ZM26.5729 60.6489L26.1827 59.4968L25.7185 59.654L26.1087 60.8062L26.5729 60.6489ZM25.7739 58.2703L24.9655 55.8824L24.5013 56.0396L25.3096 58.4275L25.7739 58.2703ZM24.501 55.8832L23.7019 58.2712L24.1667 58.4267L24.9658 56.0388L24.501 55.8832ZM23.9343 58.594H25.5417V58.1039H23.9343V58.594ZM28.8895 55.738L29.1037 55.857L29.1043 55.8559L28.8895 55.738ZM30.0509 54.558L30.1711 54.7716L30.172 54.7711L30.0509 54.558ZM33.7397 54.7438L33.8856 54.547L33.7397 54.7438ZM34.8453 56.4163V56.6614H35.1632L35.0823 56.3539L34.8453 56.4163ZM33.0985 56.4163L32.8774 56.5219L32.944 56.6614H33.0985V56.4163ZM32.5411 55.7938L32.4142 56.0034L32.4166 56.0049L32.5411 55.7938ZM30.5434 56.0911L30.7264 56.2541L30.5434 56.0911ZM32.5411 59.1201L32.4166 58.909L32.4142 58.9105L32.5411 59.1201ZM33.0985 58.4976V58.2525H32.944L32.8774 58.392L33.0985 58.4976ZM34.8453 58.4976L35.0823 58.56L35.1632 58.2525H34.8453V58.4976ZM33.7397 60.1701L33.8842 60.368L33.8856 60.3669L33.7397 60.1701ZM30.0509 60.3559L29.9288 60.5683L29.9319 60.5701L30.0509 60.3559ZM28.8895 59.1759L29.1037 59.0569L28.8895 59.1759ZM28.7165 57.4569C28.7165 56.8492 28.8476 56.3181 29.1037 55.857L28.6753 55.619C28.3739 56.1614 28.2263 56.7763 28.2263 57.4569H28.7165ZM29.1043 55.8559C29.3615 55.3873 29.7162 55.0275 30.1711 54.7716L29.9308 54.3444C29.3946 54.646 28.975 55.0729 28.6747 55.6201L29.1043 55.8559ZM30.172 54.7711C30.6334 54.5091 31.1578 54.3757 31.7513 54.3757V53.8855C31.0812 53.8855 30.472 54.0371 29.9299 54.3449L30.172 54.7711ZM31.7513 54.3757C32.4801 54.3757 33.09 54.5671 33.5937 54.9407L33.8856 54.547C33.2868 54.1029 32.5711 53.8855 31.7513 53.8855V54.3757ZM33.5937 54.9407C34.0973 55.3141 34.4357 55.8227 34.6084 56.4787L35.0823 56.3539C34.8833 55.5976 34.4846 54.9912 33.8856 54.547L33.5937 54.9407ZM34.8453 56.1712H33.0985V56.6614H34.8453V56.1712ZM33.3197 56.3107C33.1703 55.9977 32.9524 55.7518 32.6655 55.5827L32.4166 56.0049C32.6129 56.1206 32.7666 56.2898 32.8774 56.5219L33.3197 56.3107ZM32.668 55.5841C32.3904 55.4161 32.0762 55.335 31.7327 55.335V55.8251C31.9962 55.8251 32.2209 55.8865 32.4142 56.0034L32.668 55.5841ZM31.7327 55.335C31.1792 55.335 30.7141 55.5311 30.3604 55.9281L30.7264 56.2541C30.9797 55.9697 31.3075 55.8251 31.7327 55.8251V55.335ZM30.3604 55.9281C30.0077 56.324 29.843 56.8425 29.843 57.4569H30.3332C30.3332 56.9316 30.4721 56.5395 30.7264 56.2541L30.3604 55.9281ZM29.843 57.4569C29.843 58.0714 30.0077 58.5898 30.3604 58.9858L30.7264 58.6598C30.4721 58.3744 30.3332 57.9822 30.3332 57.4569H29.843ZM30.3604 58.9858C30.7141 59.3828 31.1792 59.5789 31.7327 59.5789V59.0888C31.3075 59.0888 30.9797 58.9441 30.7264 58.6598L30.3604 58.9858ZM31.7327 59.5789C32.0762 59.5789 32.3904 59.4977 32.668 59.3298L32.4142 58.9105C32.2209 59.0274 31.9962 59.0888 31.7327 59.0888V59.5789ZM32.6655 59.3312C32.9524 59.162 33.1703 58.9162 33.3197 58.6031L32.8774 58.392C32.7666 58.6241 32.6129 58.7933 32.4166 58.909L32.6655 59.3312ZM33.0985 58.7426H34.8453V58.2525H33.0985V58.7426ZM34.6084 58.4352C34.4357 59.0912 34.0973 59.5998 33.5937 59.9732L33.8856 60.3669C34.4846 59.9227 34.8833 59.3163 35.0823 58.56L34.6084 58.4352ZM33.5951 59.9721C33.0913 60.3401 32.4809 60.5289 31.7513 60.5289V61.0191C32.5703 61.0191 33.2854 60.8053 33.8842 60.368L33.5951 59.9721ZM31.7513 60.5289C31.1568 60.5289 30.6317 60.3982 30.17 60.1417L29.9319 60.5701C30.4737 60.8711 31.0821 61.0191 31.7513 61.0191V60.5289ZM30.1731 60.1434C29.7163 59.8808 29.3609 59.5198 29.1037 59.0569L28.6753 59.2949C28.9756 59.8354 29.3945 60.2611 29.9288 60.5683L30.1731 60.1434ZM29.1037 59.0569C28.8476 58.5958 28.7165 58.0647 28.7165 57.4569H28.2263C28.2263 58.1376 28.3739 58.7524 28.6753 59.2949L29.1037 59.0569ZM39.8787 59.5754L40.1108 59.4968L40.0544 59.3303H39.8787V59.5754ZM37.4443 59.5754V59.3303H37.2686L37.2122 59.4968L37.4443 59.5754ZM37.0541 60.7275V60.9726H37.2298L37.2862 60.8062L37.0541 60.7275ZM35.3909 60.7275L35.1605 60.6442L35.0416 60.9726H35.3909V60.7275ZM37.751 54.2049V53.9599H37.579L37.5205 54.1215L37.751 54.2049ZM39.5907 54.2049L39.8211 54.1215L39.7626 53.9599H39.5907V54.2049ZM41.9507 60.7275V60.9726H42.3L42.1811 60.6442L41.9507 60.7275ZM40.269 60.7275L40.0368 60.8062L40.0932 60.9726H40.269V60.7275ZM39.4699 58.3489V58.594H39.8116L39.702 58.2703L39.4699 58.3489ZM38.6615 55.961L38.8937 55.8824L38.6602 55.1928L38.4291 55.8832L38.6615 55.961ZM37.8625 58.3489L37.6301 58.2712L37.522 58.594H37.8625V58.3489ZM39.8787 59.3303H37.4443V59.8205H39.8787V59.3303ZM37.2122 59.4968L36.822 60.6489L37.2862 60.8062L37.6765 59.654L37.2122 59.4968ZM37.0541 60.4825H35.3909V60.9726H37.0541V60.4825ZM35.6214 60.8109L37.9814 54.2883L37.5205 54.1215L35.1605 60.6442L35.6214 60.8109ZM37.751 54.45H39.5907V53.9599H37.751V54.45ZM39.3602 54.2883L41.7203 60.8109L42.1811 60.6442L39.8211 54.1215L39.3602 54.2883ZM41.9507 60.4825H40.269V60.9726H41.9507V60.4825ZM40.5011 60.6489L40.1108 59.4968L39.6466 59.654L40.0368 60.8062L40.5011 60.6489ZM39.702 58.2703L38.8937 55.8824L38.4294 56.0396L39.2378 58.4275L39.702 58.2703ZM38.4291 55.8832L37.6301 58.2712L38.0949 58.4267L38.8939 56.0388L38.4291 55.8832ZM37.8625 58.594H39.4699V58.1039H37.8625V58.594ZM46.9152 54.6137L47.03 54.3972L46.9152 54.6137ZM48.1045 55.7659L47.8909 55.8861L47.8927 55.8892L48.1045 55.7659ZM48.1045 59.1666L47.892 59.0444L47.8909 59.0464L48.1045 59.1666ZM46.9059 60.3187L46.7922 60.1016L46.7911 60.1022L46.9059 60.3187ZM42.669 60.7275H42.4239V60.9726H42.669V60.7275ZM42.669 54.2049V53.9599H42.4239V54.2049H42.669ZM44.2578 55.5615V55.3164H44.0128V55.5615H44.2578ZM44.2578 59.3524H44.0128V59.5975H44.2578V59.3524ZM45.1126 54.45C45.7674 54.45 46.3275 54.5796 46.8004 54.8303L47.03 54.3972C46.4746 54.1028 45.833 53.9599 45.1126 53.9599V54.45ZM46.8004 54.8303C47.2741 55.0814 47.6357 55.4324 47.8909 55.886L48.3181 55.6457C48.0158 55.1083 47.5846 54.6912 47.03 54.3972L46.8004 54.8303ZM47.8927 55.8892C48.153 56.3362 48.2868 56.8593 48.2868 57.4662H48.777C48.777 56.7848 48.6259 56.1743 48.3163 55.6426L47.8927 55.8892ZM48.2868 57.4662C48.2868 58.0665 48.1532 58.5902 47.892 59.0444L48.3169 59.2887C48.6257 58.7518 48.777 58.142 48.777 57.4662H48.2868ZM47.8909 59.0464C47.6362 59.4993 47.272 59.8503 46.7922 60.1016L47.0196 60.5358C47.5804 60.242 48.0153 59.825 48.3181 59.2867L47.8909 59.0464ZM46.7911 60.1022C46.3179 60.353 45.7608 60.4825 45.1126 60.4825V60.9726C45.8272 60.9726 46.4656 60.8295 47.0207 60.5352L46.7911 60.1022ZM45.1126 60.4825H42.669V60.9726H45.1126V60.4825ZM42.914 60.7275V54.2049H42.4239V60.7275H42.914ZM42.669 54.45H45.1126V53.9599H42.669V54.45ZM45.0104 59.5975C45.6566 59.5975 46.1929 59.4198 46.5851 59.0349L46.2418 58.6851C45.965 58.9567 45.566 59.1073 45.0104 59.1073V59.5975ZM46.5851 59.0349C46.9788 58.6484 47.1602 58.1134 47.1602 57.4662H46.6701C46.6701 58.0208 46.517 58.4149 46.2418 58.6851L46.5851 59.0349ZM47.1602 57.4662C47.1602 56.8188 46.9788 56.282 46.5867 55.8899L46.2402 56.2365C46.5171 56.5135 46.6701 56.9119 46.6701 57.4662H47.1602ZM46.5867 55.8899C46.1947 55.4979 45.6578 55.3164 45.0104 55.3164V55.8065C45.5647 55.8065 45.9632 55.9596 46.2402 56.2365L46.5867 55.8899ZM45.0104 55.3164H44.2578V55.8065H45.0104V55.3164ZM44.0128 55.5615V59.3524H44.5029V55.5615H44.0128ZM44.2578 59.5975H45.0104V59.1073H44.2578V59.5975ZM51.0087 55.4779V55.2328H50.7636V55.4779H51.0087ZM51.0087 56.7972H50.7636V57.0423H51.0087V56.7972ZM53.1364 56.7972H53.3815V56.5522H53.1364V56.7972ZM53.1364 58.0237V58.2688H53.3815V58.0237H53.1364ZM51.0087 58.0237V57.7787H50.7636V58.0237H51.0087ZM51.0087 59.4546H50.7636V59.6997H51.0087V59.4546ZM53.4151 59.4546H53.6602V59.2095H53.4151V59.4546ZM53.4151 60.7275V60.9726H53.6602V60.7275H53.4151ZM49.4198 60.7275H49.1748V60.9726H49.4198V60.7275ZM49.4198 54.2049V53.9599H49.1748V54.2049H49.4198ZM53.4151 54.2049H53.6602V53.9599H53.4151V54.2049ZM53.4151 55.4779V55.7229H53.6602V55.4779H53.4151ZM50.7636 55.4779V56.7972H51.2537V55.4779H50.7636ZM51.0087 57.0423H53.1364V56.5522H51.0087V57.0423ZM52.8913 56.7972V58.0237H53.3815V56.7972H52.8913ZM53.1364 57.7787H51.0087V58.2688H53.1364V57.7787ZM50.7636 58.0237V59.4546H51.2537V58.0237H50.7636ZM51.0087 59.6997H53.4151V59.2095H51.0087V59.6997ZM53.1701 59.4546V60.7275H53.6602V59.4546H53.1701ZM53.4151 60.4825H49.4198V60.9726H53.4151V60.4825ZM49.6649 60.7275V54.2049H49.1748V60.7275H49.6649ZM49.4198 54.45H53.4151V53.9599H49.4198V54.45ZM53.1701 54.2049V55.4779H53.6602V54.2049H53.1701ZM53.4151 55.2328H51.0087V55.7229H53.4151V55.2328ZM61.8334 54.2049H62.0784V53.9599H61.8334V54.2049ZM61.8334 60.7275V60.9726H62.0784V60.7275H61.8334ZM60.2445 60.7275H59.9995V60.9726H60.2445V60.7275ZM60.2445 56.8158H60.4896L60.0149 56.7302L60.2445 56.8158ZM58.7858 60.7275V60.9726H58.9559L59.0154 60.8132L58.7858 60.7275ZM57.5035 60.7275L57.274 60.8135L57.3336 60.9726H57.5035V60.7275ZM56.0355 56.8065L56.265 56.7206L55.7904 56.8065H56.0355ZM56.0355 60.7275V60.9726H56.2806V60.7275H56.0355ZM54.4467 60.7275H54.2016V60.9726H54.4467V60.7275ZM54.4467 54.2049V53.9599H54.2016V54.2049H54.4467ZM56.3235 54.2049L56.5506 54.1129L56.4886 53.9599H56.3235V54.2049ZM58.1539 58.7206L57.9268 58.8126L58.1551 59.3758L58.3814 58.8118L58.1539 58.7206ZM59.9658 54.2049V53.9599H59.8001L59.7383 54.1137L59.9658 54.2049ZM61.5883 54.2049V60.7275H62.0784V54.2049H61.5883ZM61.8334 60.4825H60.2445V60.9726H61.8334V60.4825ZM60.4896 60.7275V56.8158H59.9995V60.7275H60.4896ZM60.0149 56.7302L58.5562 60.6419L59.0154 60.8132L60.4741 56.9015L60.0149 56.7302ZM58.7858 60.4825H57.5035V60.9726H58.7858V60.4825ZM57.733 60.6416L56.265 56.7206L55.806 56.8925L57.274 60.8135L57.733 60.6416ZM55.7904 56.8065V60.7275H56.2806V56.8065H55.7904ZM56.0355 60.4825H54.4467V60.9726H56.0355V60.4825ZM54.6917 60.7275V54.2049H54.2016V60.7275H54.6917ZM54.4467 54.45H56.3235V53.9599H54.4467V54.45ZM56.0964 54.297L57.9268 58.8126L58.3811 58.6285L56.5506 54.1129L56.0964 54.297ZM58.3814 58.8118L60.1932 54.2962L59.7383 54.1137L57.9265 58.6293L58.3814 58.8118ZM59.9658 54.45H61.8334V53.9599H59.9658V54.45ZM64.5648 54.2049H64.8098V53.9599H64.5648V54.2049ZM64.5648 60.7275V60.9726H64.8098V60.7275H64.5648ZM62.9759 60.7275H62.7309V60.9726H62.9759V60.7275ZM62.9759 54.2049V53.9599H62.7309V54.2049H62.9759ZM64.3197 54.2049V60.7275H64.8098V54.2049H64.3197ZM64.5648 60.4825H62.9759V60.9726H64.5648V60.4825ZM63.221 60.7275V54.2049H62.7309V60.7275H63.221ZM62.9759 54.45H64.5648V53.9599H62.9759V54.45ZM69.7766 59.5754L70.0087 59.4968L69.9523 59.3303H69.7766V59.5754ZM67.3422 59.5754V59.3303H67.1665L67.1101 59.4968L67.3422 59.5754ZM66.952 60.7275V60.9726H67.1277L67.1841 60.8062L66.952 60.7275ZM65.2888 60.7275L65.0583 60.6442L64.9395 60.9726H65.2888V60.7275ZM67.6488 54.2049V53.9599H67.4769L67.4184 54.1215L67.6488 54.2049ZM69.4885 54.2049L69.719 54.1215L69.6605 53.9599H69.4885V54.2049ZM71.8486 60.7275V60.9726H72.1978L72.079 60.6442L71.8486 60.7275ZM70.1668 60.7275L69.9347 60.8062L69.9911 60.9726H70.1668V60.7275ZM69.3677 58.3489V58.594H69.7094L69.5999 58.2703L69.3677 58.3489ZM68.5594 55.961L68.7915 55.8824L68.558 55.1928L68.327 55.8832L68.5594 55.961ZM67.7603 58.3489L67.5279 58.2712L67.4199 58.594H67.7603V58.3489ZM69.7766 59.3303H67.3422V59.8205H69.7766V59.3303ZM67.1101 59.4968L66.7198 60.6489L67.1841 60.8062L67.5743 59.654L67.1101 59.4968ZM66.952 60.4825H65.2888V60.9726H66.952V60.4825ZM65.5192 60.8109L67.8793 54.2883L67.4184 54.1215L65.0583 60.6442L65.5192 60.8109ZM67.6488 54.45H69.4885V53.9599H67.6488V54.45ZM69.2581 54.2883L71.6181 60.8109L72.079 60.6442L69.719 54.1215L69.2581 54.2883ZM71.8486 60.4825H70.1668V60.9726H71.8486V60.4825ZM70.3989 60.6489L70.0087 59.4968L69.5445 59.654L69.9347 60.8062L70.3989 60.6489ZM69.5999 58.2703L68.7915 55.8824L68.3273 56.0396L69.1356 58.4275L69.5999 58.2703ZM68.327 55.8832L67.5279 58.2712L67.9927 58.4267L68.7918 56.0388L68.327 55.8832ZM67.7603 58.594H69.3677V58.1039H67.7603V58.594Z" fill="url(#paint5_linear_847_523)" mask="url(#path-5-outside-2_847_523)"/>
<defs>
<linearGradient id="paint0_linear_847_523" x1="35.8898" y1="13.4717" x2="29.2898" y2="30.7297" gradientUnits="userSpaceOnUse">
<stop stop-color="#F8CA79"/>
<stop offset="1" stop-color="#F5852C"/>
</linearGradient>
<linearGradient id="paint1_linear_847_523" x1="35.8898" y1="13.4717" x2="29.2898" y2="30.7297" gradientUnits="userSpaceOnUse">
<stop stop-color="#F8CA79"/>
<stop offset="1" stop-color="#F5852C"/>
</linearGradient>
<linearGradient id="paint2_linear_847_523" x1="35.8956" y1="6.17188" x2="26.9212" y2="37.2354" gradientUnits="userSpaceOnUse">
<stop stop-color="#F8CA79"/>
<stop offset="1" stop-color="#F5852C"/>
</linearGradient>
<linearGradient id="paint3_linear_847_523" x1="36.1578" y1="0" x2="24.0747" y2="41.8237" gradientUnits="userSpaceOnUse">
<stop stop-color="#F8CA79"/>
<stop offset="1" stop-color="#F5852C"/>
</linearGradient>
<linearGradient id="paint4_linear_847_523" x1="36" y1="50.7275" x2="35.2568" y2="63.9579" gradientUnits="userSpaceOnUse">
<stop stop-color="#F8CA79"/>
<stop offset="1" stop-color="#F5852C"/>
</linearGradient>
<linearGradient id="paint5_linear_847_523" x1="36" y1="50.7275" x2="35.2568" y2="63.9579" gradientUnits="userSpaceOnUse">
<stop stop-color="#F8CA79"/>
<stop offset="1" stop-color="#F5852C"/>
</linearGradient>
</defs>
</svg>
